<svg height="512pt" viewBox="0 -31 512 512" width="512pt" xmlns="http://www.w3.org/2000/svg"><path d="m467 150h-90.984375c-8.292969 0-15-6.710938-15-15s6.707031-15 15-15h75.984375v-45c0-8.289062 6.710938-15 15-15s15 6.710938 15 15v60c0 8.289062-6.710938 15-15 15zm0 0" fill="#575f64"/><path d="m467 390c-8.289062 0-15-6.710938-15-15v-45h-75.984375c-8.292969 0-15-6.710938-15-15s6.707031-15 15-15h90.984375c8.289062 0 15 6.710938 15 15v60c0 8.289062-6.710938 15-15 15zm0 0" fill="#575f64"/><g fill="#7c8388"><path d="m135.984375 150h-90.984375c-8.289062 0-15-6.710938-15-15v-60c0-8.289062 6.710938-15 15-15s15 6.710938 15 15v45h75.984375c8.292969 0 15 6.710938 15 15s-6.707031 15-15 15zm0 0"/><path d="m45 390c-8.289062 0-15-6.710938-15-15v-60c0-8.289062 6.710938-15 15-15h90.984375c8.292969 0 15 6.710938 15 15s-6.707031 15-15 15h-75.984375v45c0 8.289062-6.710938 15-15 15zm0 0"/><path d="m106 240h-91c-8.289062 0-15-6.710938-15-15s6.710938-15 15-15h91c8.289062 0 15 6.710938 15 15s-6.710938 15-15 15zm0 0"/></g><path d="m497 240h-91c-8.289062 0-15-6.710938-15-15s6.710938-15 15-15h91c8.289062 0 15 6.710938 15 15s-6.710938 15-15 15zm0 0" fill="#575f64"/><path d="m316 90c-8.289062 0-15-6.710938-15-15v-60c0-8.289062 6.710938-15 15-15s15 6.710938 15 15v60c0 8.289062-6.710938 15-15 15zm0 0" fill="#575f64"/><path d="m196 90c-8.289062 0-15-6.710938-15-15v-60c0-8.289062 6.710938-15 15-15s15 6.710938 15 15v60c0 8.289062-6.710938 15-15 15zm0 0" fill="#7c8388"/><path d="m196 450c-8.289062 0-15-6.710938-15-15v-60c0-8.289062 6.710938-15 15-15s15 6.710938 15 15v60c0 8.289062-6.710938 15-15 15zm0 0" fill="#7c8388"/><path d="m316 450c-8.289062 0-15-6.710938-15-15v-60c0-8.289062 6.710938-15 15-15s15 6.710938 15 15v60c0 8.289062-6.710938 15-15 15zm0 0" fill="#575f64"/><path d="m256 60c-90.902344 0-166 74.097656-166 165 0 90.898438 75.097656 165 166 165s166-74.101562 166-165c0-90.902344-75.097656-165-166-165zm0 0" fill="#fdbf00"/><path d="m422 225c0 90.898438-75.097656 165-166 165v-330c90.902344 0 166 74.097656 166 165zm0 0" fill="#ff9100"/><path d="m391 225c0 74.398438-60.601562 135-135 135s-135-60.601562-135-135c0-74.402344 60.601562-135 135-135s135 60.597656 135 135zm0 0" fill="#ffda2d"/><path d="m391 225c0 74.398438-60.601562 135-135 135v-270c74.398438 0 135 60.597656 135 135zm0 0" fill="#fdbf00"/><path d="m467 450c-24.8125 0-45-20.1875-45-45s20.1875-45 45-45 45 20.1875 45 45-20.1875 45-45 45zm0 0" fill="#00c0f1"/><path d="m467 90c-24.8125 0-45-20.1875-45-45s20.1875-45 45-45 45 20.1875 45 45-20.1875 45-45 45zm0 0" fill="#00c0f1"/><path d="m45 90c-24.8125 0-45-20.1875-45-45s20.1875-45 45-45 45 20.1875 45 45-20.1875 45-45 45zm0 0" fill="#25d9f8"/><path d="m45 450c-24.8125 0-45-20.1875-45-45s20.1875-45 45-45 45 20.1875 45 45-20.1875 45-45 45zm0 0" fill="#25d9f8"/><path d="m331 225c0 3-.902344 5.699219-2.402344 8.398438l-60 90c-2.996094 4.199218-7.5 6.601562-12.597656 6.601562s-9.601562-2.402344-12.597656-6.601562l-60-90c-1.5-2.699219-2.402344-5.398438-2.402344-8.398438zm0 0" fill="#ff9100"/><path d="m331 225c0 3-.902344 5.699219-2.402344 8.398438l-60 90c-2.996094 4.199218-7.5 6.601562-12.597656 6.601562v-105zm0 0" fill="#dd7b05"/><path d="m331 225-69.300781 28.800781c-1.800781.597657-3.898438 1.199219-5.699219 1.199219s-3.898438-.601562-5.699219-1.199219l-69.300781-28.800781c0-3 .902344-5.699219 2.402344-8.402344l60-90c2.996094-4.199218 7.796875-6.296875 12.597656-6.296875s9.601562 2.097657 12.597656 6.296875l60 90c1.5 2.703125 2.402344 5.402344 2.402344 8.402344zm0 0" fill="#fdbf00"/><path d="m331 225-69.300781 28.800781c-1.800781.597657-3.898438 1.199219-5.699219 1.199219v-134.699219c4.800781 0 9.601562 2.097657 12.597656 6.296875l60 90c1.5 2.703125 2.402344 5.402344 2.402344 8.402344zm0 0" fill="#ff9100"/></svg>