<?xml version="1.0"?>
<svg xmlns="http://www.w3.org/2000/svg" height="512px" viewBox="0 0 512.01203 512" width="512px" class=""><g transform="matrix(1 0 0 1 0 0)"><path d="m344.003906 511.996094h-160c-66.273437 0-120-53.726563-120-120 0-66.273438 53.726563-120 120-120 2.769532 0 5.457032 0 8.097656.257812 35.5625-75.300781 120.921876-113.183594 200.621094-89.039062 79.699219 24.144531 129.679688 103.03125 117.476563 185.40625-12.207031 82.375-82.917969 143.378906-166.195313 143.375zm0 0" fill="#ccdade" data-original="#CCDADE" class="active-path" style="fill:#FBFBFB" data-old_color="#F9F9F9"/><path d="m0 187.644531 187.636719-187.6367185 22.628906 22.6249995-187.636719 187.636719zm0 0" fill="#708299" data-original="#708299" class="" style="fill:#060505" data-old_color="#0B0A0A"/><path d="m176.339844 169.691406-1.453125-1.4375c-10.746094-10.496094-13.921875-26.519531-8-40.320312 10.761719-24.242188 5.503906-52.605469-13.234375-71.375-18.550782-17.714844-45.710938-23.023438-69.566406-13.601563-14.160157 6.152344-30.621094 3.261719-41.839844-7.34375l-1.601563-1.601562c37.488281-37.492188 98.277344-37.496094 135.769531-.007813 37.492188 37.488282 37.496094 98.277344.007813 135.769532zm0 0" fill="#008dff" data-original="#008DFF" class="" style="fill:#020202" data-old_color="#0D0E0E"/><path d="m448.003906 287.996094h32v32h-32zm0 0" fill="#fff" data-original="#FFF" class="" style="fill:#FFF" data-old_color="#E6C4E6"/><path d="m448.003906 351.996094h32v32h-32zm0 0" fill="#fff" data-original="#FFF" class="" style="fill:#FFF" data-old_color="#E6C4E6"/><path d="m304.054688 404.894531-62.738282-27.328125 62.6875 75.230469 9.425782-11.3125v-40.6875zm0 0" fill="#708299" data-original="#708299" class="" style="fill:#060505" data-old_color="#0B0A0A"/><path d="m304.003906 251.195312-72 115.203126h144zm0 0" fill="#708299" data-original="#708299" class="" style="fill:#060505" data-old_color="#0B0A0A"/><path d="m376.003906 366.558594-72-115.363282v115.363282zm0 0" fill="#68788e" data-original="#68788E" class="" style="fill:#68788E" data-old_color="#8A9AAF"/><path d="m304.003906 335.117188-.285156-.128907-71.695312 31.503907h.0625l71.695312 31.503906.289062-.128906 9.359376-4.078126v-54.558593zm0 0" fill="#3c3c47" data-original="#3C3C47" class="" style="fill:#3C3C47" data-old_color="#1F1F2D"/><path d="m304.054688 404.894531-.050782 47.902344 62.738282-75.28125zm0 0" fill="#68788e" data-original="#68788E" class="" style="fill:#68788E" data-old_color="#8A9AAF"/><path d="m375.863281 366.492188-71.859375-31.375-.285156-.128907.0625 63.007813.289062-.128906 71.855469-31.375zm0 0" fill="#31313b" data-original="#31313B" class="" style="fill:#31313B" data-old_color="#181818"/></g> </svg>
