<svg height="512pt" viewBox="0 0 512 512" width="512pt" xmlns="http://www.w3.org/2000/svg"><path d="m64 512c-17.671875 0-32-14.328125-32-32v-384h64v384c0 17.671875-14.328125 32-32 32zm0 0" fill="#708299"/><path d="m32 96h64v64h-64zm0 0" fill="#68788e"/><path d="m397.617188 112h-301.617188v-96h41.601562c69.597657 0 169.039063 23.183594 224.445313 67.503906zm0 0" fill="#ccdade"/><path d="m357.246094 80h-261.246094v32h301.617188l-35.617188-28.496094c-1.519531-1.199218-3.167969-2.335937-4.753906-3.503906zm0 0" fill="#b6cdd3"/><path d="m512 336c0 97.203125-78.796875 176-176 176s-176-78.796875-176-176 78.796875-176 176-176 176 78.796875 176 176zm0 0" fill="#f8d539"/><path d="m192 320h32v32h-32zm0 0" fill="#fff"/><path d="m448 320h32v32h-32zm0 0" fill="#fff"/><path d="m16 0h96c8.835938 0 16 7.164062 16 16v96c0 8.835938-7.164062 16-16 16h-96c-8.835938 0-16-7.164062-16-16v-96c0-8.835938 7.164062-16 16-16zm0 0" fill="#f8d539"/><path d="m336.0625 400.65625-76.6875-33.390625 76.625 91.933594 11.519531-13.824219v-49.726562zm0 0" fill="#708299"/><path d="m336 212.800781-88 140.800781h176zm0 0" fill="#708299"/><path d="m424 353.808594-88-141.007813v141.007813zm0 0" fill="#68788e"/><path d="m336 315.359375-.351562-.144531-87.632813 38.496094h.082031l87.628906 38.511718.351563-.160156 11.441406-4.992188v-66.6875zm0 0" fill="#3c3c47"/><path d="m336.0625 400.65625-.0625 58.542969 76.671875-92zm0 0" fill="#68788e"/><path d="m423.824219 353.710938-87.824219-38.351563-.351562-.144531.078124 77.007812.351563-.160156 87.824219-38.351562zm0 0" fill="#31313b"/><path d="m112 112h-96c-8.835938 0-16-7.164062-16-16v16c0 8.835938 7.164062 16 16 16h96c8.835938 0 16-7.164062 16-16v-16c0 8.835938-7.164062 16-16 16zm0 0" fill="#f2c714"/><path d="m48 48h32v32h-32zm0 0" fill="#fff"/></svg>