<?xml version="1.0"?>
<svg xmlns="http://www.w3.org/2000/svg" height="512px" viewBox="0 -31 512 512" width="512px" class=""><g><path d="m482 135v-47.578125c17.460938-6.195313 30-22.867187 30-42.421875 0-24.8125-20.1875-45-45-45s-45 20.1875-45 45c0 19.554688 12.539062 36.226562 30 42.421875v32.578125h-68.8125c-14.300781-17.289062-32.050781-31.628906-52.1875-41.949219v-63.050781c0-8.285156-6.714844-15-15-15s-15 6.714844-15 15v51.238281c-14.308594-4.0625-29.40625-6.238281-45-6.238281s-30.691406 2.175781-45 6.238281v-51.238281c0-8.285156-6.714844-15-15-15s-15 6.714844-15 15v63.050781c-20.136719 10.320313-37.886719 24.660157-52.1875 41.949219h-68.8125v-32.578125c17.460938-6.195313 30-22.867187 30-42.421875 0-24.8125-20.1875-45-45-45s-45 20.1875-45 45c0 19.554688 12.539062 36.226562 30 42.421875v47.578125c0 8.285156 6.714844 14.988281 15 14.988281h64.050781c-9.375 18.296875-15.421875 38.574219-17.363281 60.011719h-76.6875c-8.285156 0-15 6.714844-15 15s6.714844 15 15 15h76.6875c1.941406 21.4375 7.988281 41.703125 17.363281 60h-64.050781c-8.285156 0-15 6.714844-15 15v47.578125c-17.460938 6.195313-30 22.867187-30 42.421875 0 24.8125 20.1875 45 45 45s45-20.1875 45-45c0-19.554688-12.539062-36.226562-30-42.421875v-32.578125h68.8125c14.300781 17.292969 32.050781 31.628906 52.191406 41.949219 0 .015625-.003906.035156-.003906.050781v63c0 8.285156 6.714844 15 15 15s15-6.714844 15-15v-51.238281c14.308594 4.0625 29.40625 6.238281 45 6.238281s30.691406-2.175781 45-6.238281v51.238281c0 8.285156 6.714844 15 15 15s15-6.714844 15-15v-63.050781c20.136719-10.320313 37.886719-24.660157 52.1875-41.949219h68.8125v32.578125c-17.460938 6.195313-30 22.867187-30 42.421875 0 24.8125 20.1875 45 45 45s45-20.1875 45-45c0-19.554688-12.539062-36.226562-30-42.421875v-47.578125c0-8.285156-6.714844-15-15-15h-64.050781c9.375-18.296875 15.421875-38.5625 17.363281-60h76.6875c8.285156 0 15-6.714844 15-15s-6.714844-15-15-15h-76.6875c-1.941406-21.4375-7.988281-41.703125-17.363281-60h64.050781c8.285156 0 15-6.714844 15-15zm-437-75c-8.269531 0-15-6.730469-15-15s6.730469-15 15-15 15 6.730469 15 15-6.730469 15-15 15zm0 360c-8.269531 0-15-6.730469-15-15s6.730469-15 15-15 15 6.730469 15 15-6.730469 15-15 15zm422-30c8.269531 0 15 6.730469 15 15s-6.730469 15-15 15-15-6.730469-15-15 6.730469-15 15-15zm-211-30c-74.4375 0-135-60.5625-135-135s60.5625-135 135-135 135 60.5625 135 135-60.5625 135-135 135zm196-315c0-8.269531 6.730469-15 15-15s15 6.730469 15 15-6.730469 15-15 15-15-6.730469-15-15zm0 0" data-original="#000000" class="active-path" data-old_color="#ffffff" fill="#ffffff"/><path d="m268.480469 126.679688c-2.78125-4.171876-7.464844-6.679688-12.480469-6.679688s-9.699219 2.507812-12.480469 6.679688l-60 90c-3.359375 5.039062-3.359375 11.601562 0 16.640624l60 90c2.78125 4.171876 7.464844 6.679688 12.480469 6.679688s9.699219-2.503906 12.480469-6.679688l60-90c3.359375-5.039062 3.359375-11.601562 0-16.640624zm-12.480469 161.277343-25.84375-38.765625 22.324219 5.390625c1.15625.277344 2.339843.417969 3.519531.417969 1.183594 0 2.363281-.140625 3.519531-.417969l22.328125-5.390625zm0-63.386719-35.90625-8.667968 35.90625-53.859375 35.90625 53.859375zm0 0" data-original="#000000" class="active-path" data-old_color="#ffffff" fill="#ffffff"/></g> </svg>
