<svg height="513pt" viewBox="-17 0 513 513.82405" width="513pt" xmlns="http://www.w3.org/2000/svg"><path d="m208.421875 513.824219h-192c-5.148437.003906-9.980469-2.46875-12.992187-6.644531-3.007813-4.175782-3.824219-9.546876-2.191407-14.425782l35.664063-106.929687h151.039062l35.695313 106.929687c1.632812 4.886719.8125 10.257813-2.203125 14.4375-3.015625 4.175782-7.859375 6.644532-13.011719 6.632813zm0 0" fill="#f8d539"/><path d="m464.421875 513.824219h-192c-5.148437.003906-9.980469-2.46875-12.992187-6.644531-3.007813-4.175782-3.824219-9.546876-2.191407-14.425782l35.664063-106.929687h151.039062l35.695313 106.929687c1.632812 4.886719.8125 10.257813-2.203125 14.4375-3.015625 4.175782-7.859375 6.644532-13.011719 6.632813zm0 0" fill="#f8d539"/><path d="m187.941406 385.824219 10.71875 32h-87.054687c-7.8125-.003907-15.144531-3.761719-19.707031-10.101563-4.5625-6.34375-5.796876-14.492187-3.316407-21.898437zm0 0" fill="#f2c714"/><path d="m369.238281 417.824219h-87.058593l10.722656-32h99.359375c2.480469 7.40625 1.246093 15.554687-3.316407 21.898437-4.5625 6.339844-11.894531 10.097656-19.707031 10.101563zm0 0" fill="#f2c714"/><path d="m336.421875 385.824219h-192c-5.144531 0-9.972656-2.46875-12.980469-6.640625-3.011718-4.171875-3.828125-9.535156-2.203125-14.414063l35.648438-106.945312h151.070312l35.648438 106.945312c1.625 4.878907.804687 10.242188-2.203125 14.414063-3.007813 4.171875-7.839844 6.640625-12.980469 6.640625zm0 0" fill="#f8d539"/><g fill="#fff"><path d="m256.421875 289.824219h32v32h-32zm0 0"/><path d="m400.421875 417.824219h32v32h-32zm0 0"/><path d="m48.421875 417.824219h32v32h-32zm0 0"/></g><path d="m240.484375 182.960938-69.710937-32.511719 69.648437 89.550781 10.464844-13.457031v-48.445313zm0 0" fill="#708299"/><path d="m240.421875 0-80 137.136719h160zm0 0" fill="#708299"/><path d="m320.421875 137.328125-80-137.328125v137.328125zm0 0" fill="#68788e"/><path d="m240.421875 99.886719-.320313-.144531-79.664062 37.503906h.0625l79.679688 37.507812.304687-.144531 10.402344-4.867187v-64.957032zm0 0" fill="#3c3c47"/><path d="m240.484375 182.960938-.0625 57.039062 69.695313-89.617188zm0 0" fill="#68788e"/><path d="m320.261719 137.246094-79.839844-37.359375-.320313-.144531.078126 75.011718.304687-.144531 79.855469-37.363281zm0 0" fill="#31313b"/></svg>