<?xml version="1.0"?>
<svg xmlns="http://www.w3.org/2000/svg" height="512px" viewBox="-56 0 512 512.144" width="512px" class=""><g><path d="m248.074219 136v-8h32c.65625 0 1.304687-.078125 1.9375-.238281l64-16c3.566406-.890625 6.0625-4.089844 6.0625-7.761719v-32c0-4.414062-3.578125-8-8-8h-96v-15.335938c0-2.007812-.761719-3.953124-2.128907-5.425781l-8-8.664062c-1.503906-1.644531-3.640624-2.574219-5.871093-2.574219h-.847657l-6.503906-25.945312c-.890625-3.558594-4.089844-6.054688-7.761718-6.054688h-31.96875c-3.664063 0-6.863282 2.496094-7.757813 6.046875l-6.511719 25.953125h-2.648437c-2.230469 0-4.359375.9375-5.878907 2.574219l-8 8.664062c-1.363281 1.472657-2.121093 3.417969-2.121093 5.425781v16.777344l-113.570313 22.71875c-1.175781.230469-2.269531.71875-3.230468 1.441406l-32 24c-2.75 2.0625-3.878907 5.664063-2.792969 8.925782 1.097656 3.273437 4.144531 5.472656 7.59375 5.472656h144.03125l-.03125 7.96875c0 1.253906.289062 2.488281.839843 3.605469l8 16c1.359376 2.714843 4.128907 4.425781 7.160157 4.425781h8.375l-.664063 170.199219c-1.191406.6875-2.335937 1.480469-3.320312 2.457031-3.03125 3.007812-4.710938 7.023438-4.726563 11.296875l-.183593 47.863281c0 .015625-.234376 56.054688-.234376 56.054688 0 .015625-.175781 48.089844-.175781 48.089844-.03125 8.816406 7.121094 16.015624 15.9375 16.054687l32 .128906h.0625c8.785157 0 15.953125-7.136719 16-15.9375l.59375-152c.023438-5.894531-3.199219-11.007812-7.945312-13.800781l.65625-170.40625h7.625c3.03125 0 5.800781-1.710938 7.160156-4.425781l8-16c.550781-1.101563.839844-2.335938.839844-3.574219zm-56.832031-120h19.488281l4.007812 15.992188-27.503906-.039063zm-23.167969 35.792969 3.503906-3.792969h53.40625.015625 3.570312l3.503907 3.792969v12.207031h-64zm-124.65625 51.695312 117.449219-23.488281h175.207031v17.753906l-56.984375 14.246094h-247.015625zm140.097656 296.449219 31.988281.125-.15625 40-31.992187-.125zm.054687-16 .160157-39.921875 32 .128906-.152344 39.917969zm24.222657-55.824219-16-.066406.65625-168 16 .066406zm-24.664063 167.902344.160156-40.078125 32.007813.125-.152344 40.082031zm48.945313-361.902344-4.945313 9.886719h-54.109375l-4.9375-9.871094.023438-6.097656 63.96875.25zm0 0" data-original="#000000" class="active-path" data-old_color="#ffffff" fill="#ffffff"/><path d="m184.074219 88h32v16h-32zm0 0" data-original="#000000" class="active-path" data-old_color="#ffffff" fill="#ffffff"/><path d="m360.074219 256c0-48.160156-21.390625-93.296875-58.6875-123.839844l-10.144531 12.375c33.574218 27.496094 52.832031 68.121094 52.832031 111.464844 0 61.929688-39.417969 116.800781-98.074219 136.519531l5.097656 15.167969c65.175782-21.917969 108.976563-82.878906 108.976563-151.6875zm0 0" data-original="#000000" class="active-path" data-old_color="#ffffff" fill="#ffffff"/><path d="m56.074219 256c0-40.40625 17.136719-79.199219 47.015625-106.449219l-10.785156-11.824219c-33.191407 30.273438-52.230469 73.378907-52.230469 118.273438 0 68.398438 43.449219 129.238281 108.105469 151.390625l5.183593-15.132813c-58.195312-19.9375-97.289062-74.699218-97.289062-136.257812zm0 0" data-original="#000000" class="active-path" data-old_color="#ffffff" fill="#ffffff"/><path d="m350.089844 123.726562-12 10.585938c29.65625 33.609375 45.984375 76.824219 45.984375 121.6875 0 83.945312-56.6875 157.199219-137.839844 178.167969l4 15.496093c88.222656-22.792968 149.839844-102.425781 149.839844-193.664062 0-48.769531-17.753907-95.742188-49.984375-132.273438zm0 0" data-original="#000000" class="active-path" data-old_color="#ffffff" fill="#ffffff"/><path d="m16.074219 256c0-38.03125 11.503906-74.535156 33.273437-105.558594l-13.105468-9.183594c-23.664063 33.71875-36.1679692 73.40625-36.1679692 114.742188 0 90.449219 60.9531252 169.902344 148.2226562 193.230469l4.136719-15.460938c-80.289063-21.449219-136.359375-94.5625-136.359375-177.769531zm0 0" data-original="#000000" class="active-path" data-old_color="#ffffff" fill="#ffffff"/><path d="m296.074219 200h-48v16h40v24c0 4.414062 3.574219 8 8 8h32v-16h-24v-24c0-4.414062-3.578125-8-8-8zm0 0" data-original="#000000" class="active-path" data-old_color="#ffffff" fill="#ffffff"/><path d="m248.074219 168h32v16h-32zm0 0" data-original="#000000" class="active-path" data-old_color="#ffffff" fill="#ffffff"/><path d="m304.074219 304v-24h24v-16h-32c-4.425781 0-8 3.585938-8 8v24h-40v16h48c4.421875 0 8-3.585938 8-8zm0 0" data-original="#000000" class="active-path" data-old_color="#ffffff" fill="#ffffff"/><path d="m248.074219 328h32v16h-32zm0 0" data-original="#000000" class="active-path" data-old_color="#ffffff" fill="#ffffff"/><path d="m256.074219 232h16v48h-16zm0 0" data-original="#000000" class="active-path" data-old_color="#ffffff" fill="#ffffff"/><path d="m248.074219 360h16v16h-16zm0 0" data-original="#000000" class="active-path" data-old_color="#ffffff" fill="#ffffff"/><path d="m256.074219 136h16v16h-16zm0 0" data-original="#000000" class="active-path" data-old_color="#ffffff" fill="#ffffff"/><path d="m96.074219 208v24h-24v16h32c4.414062 0 8-3.585938 8-8v-24h40v-16h-48c-4.417969 0-8 3.585938-8 8zm0 0" data-original="#000000" class="active-path" data-old_color="#ffffff" fill="#ffffff"/><path d="m120.074219 168h32v16h-32zm0 0" data-original="#000000" class="active-path" data-old_color="#ffffff" fill="#ffffff"/><path d="m152.074219 296h-40v-24c0-4.414062-3.585938-8-8-8h-32v16h24v24c0 4.414062 3.582031 8 8 8h48zm0 0" data-original="#000000" class="active-path" data-old_color="#ffffff" fill="#ffffff"/><path d="m120.074219 328h32v16h-32zm0 0" data-original="#000000" class="active-path" data-old_color="#ffffff" fill="#ffffff"/><path d="m128.074219 232h16v48h-16zm0 0" data-original="#000000" class="active-path" data-old_color="#ffffff" fill="#ffffff"/><path d="m136.074219 360h16v16h-16zm0 0" data-original="#000000" class="active-path" data-old_color="#ffffff" fill="#ffffff"/><path d="m128.074219 136h16v16h-16zm0 0" data-original="#000000" class="active-path" data-old_color="#ffffff" fill="#ffffff"/></g> </svg>
