<?xml version="1.0" encoding="UTF-8"?>
<svg xmlns="http://www.w3.org/2000/svg" xmlns:xlink="http://www.w3.org/1999/xlink" version="1.1" id="Layer_1" x="0px" y="0px" viewBox="0 0 64 64" style="enable-background:new 0 0 64 64;" xml:space="preserve">
<style type="text/css">
	.st0{fill:none;stroke:#000000;stroke-linecap:round;stroke-linejoin:round;stroke-miterlimit:10;}
	.st1{fill:none;stroke:#000000;stroke-width:2;stroke-linecap:round;stroke-linejoin:round;stroke-miterlimit:10;}
	.st2{fill:none;stroke:#000000;stroke-miterlimit:10;}
	.st3{fill:none;stroke:#000000;stroke-width:2;stroke-miterlimit:10;}
	.st4{fill:none;stroke:#000000;stroke-width:2;stroke-linecap:round;stroke-linejoin:round;}
	.st5{fill:none;stroke:#000000;stroke-linecap:round;stroke-linejoin:round;}
</style>
<g>
	<ellipse transform="matrix(0.7071 -0.7071 0.7071 0.7071 -9.6361 24.8801)" cx="25.215" cy="24.072" rx="0.5" ry="0.5"/>
	<ellipse transform="matrix(0.7071 -0.7071 0.7071 0.7071 -11.0503 24.2943)" cx="23.801" cy="25.486" rx="0.5" ry="0.5"/>
	<path d="M52.963,47.578l-1.414-1.414l-1.414-1.414c-0.195-0.195-0.512-0.195-0.707,0l-0.354,0.354l-13.22-13.22l8.183-8.183   c0.094,0.094,0.221,0.146,0.354,0.146s0.26-0.053,0.354-0.146l0.394-0.394c2.809,3.141,5.295,6.549,7.392,10.136   c0.091,0.157,0.258,0.248,0.432,0.248c0.049,0,0.099-0.007,0.147-0.022c0.222-0.068,0.367-0.28,0.352-0.512   c-0.333-4.806-2.041-9.369-4.946-13.228l0.471-0.472c0.094-0.094,0.146-0.221,0.146-0.354s-0.053-0.26-0.146-0.354l1.414-1.414   c0.391-0.391,0.391-1.023,0-1.414l-2.828-2.828c-0.391-0.391-1.023-0.391-1.414,0l-1.415,1.414c-0.195-0.195-0.512-0.195-0.707,0   l-0.471,0.471c-3.858-2.906-8.421-4.613-13.227-4.946c-0.23-0.014-0.444,0.13-0.513,0.352c-0.068,0.222,0.025,0.462,0.226,0.579   c3.586,2.096,6.994,4.581,10.136,7.393l-0.394,0.394c-0.094,0.094-0.146,0.221-0.146,0.354s0.053,0.26,0.146,0.354l-8.183,8.184   l-2.862-2.862h0l0.707-0.707c0.111-0.111,0.164-0.268,0.142-0.423c-0.021-0.155-0.115-0.292-0.252-0.368l-1.693-0.941l2.864-2.865   c0.391-0.391,0.391-1.023,0-1.414l-5.35-5.35c-2.208-2.209-5.343-3.109-8.388-2.406l-4.872,1.124   c-0.373,0.086-0.664,0.377-0.75,0.75l-1.124,4.872c-0.703,3.043,0.196,6.18,2.405,8.388l5.35,5.35   c0.195,0.195,0.451,0.293,0.707,0.293s0.512-0.098,0.707-0.293l2.828-2.828c0.014-0.014,0.018-0.032,0.031-0.047l0.947,1.704   c0.076,0.137,0.212,0.23,0.368,0.252c0.023,0.003,0.046,0.005,0.069,0.005c0.132,0,0.259-0.052,0.354-0.146l0.707-0.707   l2.862,2.862L11.511,47.742c-1.169,1.17-1.169,3.073,0,4.243c0.585,0.585,1.353,0.877,2.121,0.877c0.769,0,1.537-0.292,2.122-0.877   l15.859-15.859l13.219,13.219l0,0l-0.354,0.354c-0.094,0.094-0.146,0.221-0.146,0.354s0.053,0.26,0.146,0.354l1.414,1.414   l1.414,1.414c0.487,0.487,1.127,0.731,1.768,0.731c0.641,0,1.281-0.244,1.768-0.731l2.121-2.121   C53.938,50.139,53.938,48.553,52.963,47.578z M52.203,30.983c-1.871-2.947-4.008-5.752-6.361-8.379l1.953-1.953   C50.078,23.723,51.586,27.247,52.203,30.983z M46.867,15.216l1.414,1.414l-0.707,0.707l0,0l-1.414-1.414L46.867,15.216z    M44.745,15.923C44.745,15.923,44.745,15.923,44.745,15.923C44.745,15.923,44.745,15.923,44.745,15.923l3.182,3.182L47.5,19.532   c0,0,0,0,0,0l-2.694,2.694c0,0-0.001,0-0.001,0.001l-0.413,0.413l-3.182-3.182c0,0,0,0,0,0s0,0,0,0l-0.353-0.353l0.413-0.412   c0,0,0-0.001,0.001-0.001l2.694-2.694c0,0,0,0,0,0l0.428-0.428L44.745,15.923z M32.514,11.294   c3.737,0.616,7.261,2.124,10.331,4.408l-1.953,1.953C38.264,15.301,35.459,13.164,32.514,11.294z M41.209,20.872l1.415,1.415l0,0   l-8.183,8.183l-1.414-1.414L41.209,20.872z M20.619,26.547l-2.121,2.121l-4.643-4.643c-1.718-1.718-2.417-4.156-1.871-6.524   l0.983-4.263l4.263-0.983c2.368-0.545,4.806,0.153,6.524,1.871l4.643,4.643l-2.357,2.357c-0.069,0.069-0.11,0.151-0.154,0.232   l-2.903-1.613c-0.195-0.107-0.438-0.074-0.596,0.084l-2.829,2.828c-0.158,0.158-0.192,0.401-0.083,0.597l1.685,3.032   C20.962,26.32,20.771,26.395,20.619,26.547z M23.563,28.553l-3.031-5.455l2.295-2.295l5.455,3.031l-3.774,3.773c0,0,0,0,0,0   s0,0,0,0L23.563,28.553z M14.34,50.571c-0.39,0.391-1.024,0.391-1.414,0c-0.39-0.39-0.39-1.025,0-1.415l15.859-15.858l1.414,1.414   L14.34,50.571z M46.246,47.932L32.321,34.006c0,0-0.001-0.001-0.001-0.001s-0.001-0.001-0.001-0.001l-6.396-6.396l1.414-1.414   c0,0,0,0,0,0l20.324,20.324L46.246,47.932C46.246,47.932,46.246,47.932,46.246,47.932z M49.074,46.518   C49.075,46.518,49.075,46.518,49.074,46.518C49.075,46.518,49.075,46.517,49.074,46.518l0.707-0.707l0.707,0.707l-4.243,4.242   l-0.707-0.707L49.074,46.518z M52.256,50.406l-2.121,2.121c-0.585,0.584-1.537,0.584-2.122,0l-1.061-1.061l4.243-4.242l1.061,1.061   C52.841,48.87,52.841,49.821,52.256,50.406z"/>
</g>

	<metadata>
		<rdf:RDF xmlns:rdf="http://www.w3.org/1999/02/22-rdf-syntax-ns#" xmlns:rdfs="http://www.w3.org/2000/01/rdf-schema#" xmlns:dc="http://purl.org/dc/elements/1.1/">
			<rdf:Description about="https://iconscout.com/legal#licenses" dc:title="16 bitcoin mining tool block chain" dc:description="16 bitcoin mining tool block chain" dc:publisher="Iconscout" dc:date="2017-06-21" dc:format="image/svg+xml" dc:language="en">
				<dc:creator>
					<rdf:Bag>
						<rdf:li>Jemis Mali</rdf:li>
					</rdf:Bag>
				</dc:creator>
			</rdf:Description>
		</rdf:RDF>
    </metadata></svg>
